STARTFONT 2.1
FONT -DEC-Menu-Medium-R-Normal--13-100-100-100-P-77-ISO8859-8
SIZE 10 100 100
FONTBOUNDINGBOX 11 13 0 -2

STARTPROPERTIES 26
FONTNAME_REGISTRY ""
FAMILY_NAME "Menu"
FOUNDRY "DEC"
WEIGHT_NAME "Medium"
SETWIDTH_NAME "Normal"
SLANT "R"
ADD_STYLE_NAME ""
PIXEL_SIZE 13
RESOLUTION_X 100
RESOLUTION_Y 100
SPACING "P"
AVERAGE_WIDTH 77
CHARSET_REGISTRY "ISO8859"
CHARSET_ENCODING "8"
CHARSET_COLLECTIONS "ASCII ISO8859-8"
CAP_HEIGHT 9
X_HEIGHT 7
FULL_NAME "DEC Menu"
COPYRIGHT "Digital Israel"
NOTICE "Pellucida is a registered trademark of DEC"
QUAD_WIDTH 8
POINT_SIZE 100
WEIGHT 10
DEFAULT_CHAR 0
FONT_DESCENT 4
FONT_ASCENT 13
ENDPROPERTIES

CHARS 152

STARTCHAR space
ENCODING 32
SWIDTH 216 0
DWIDTH 3 0
BBX 1 1 0 0
BITMAP
00
ENDCHAR

STARTCHAR exclam
ENCODING 33
SWIDTH 216 0
DWIDTH 3 0
BBX 1 9 1 0
BITMAP
80
80
80
80
80
80
00
80
80
ENDCHAR

STARTCHAR quotedbl
ENCODING 34
SWIDTH 360 0
DWIDTH 5 0
BBX 3 3 1 7
BITMAP
A0
A0
A0
ENDCHAR

STARTCHAR numbersign
ENCODING 35
SWIDTH 576 0
DWIDTH 8 0
BBX 6 9 1 0
BITMAP
48
48
FC
48
48
FC
48
48
48
ENDCHAR

STARTCHAR dollar
ENCODING 36
SWIDTH 576 0
DWIDTH 8 0
BBX 6 13 1 -2
BITMAP
10
10
78
94
90
D0
30
2C
24
A4
78
20
20
ENDCHAR

STARTCHAR percent
ENCODING 37
SWIDTH 648 0
DWIDTH 9 0
BBX 7 9 1 0
BITMAP
60
92
94
68
10
2C
52
92
0C
ENDCHAR

STARTCHAR ampersand
ENCODING 38
SWIDTH 648 0
DWIDTH 9 0
BBX 8 9 1 0
BITMAP
38
44
44
28
71
89
86
86
79
ENDCHAR

STARTCHAR quoteright
ENCODING 39
SWIDTH 216 0
DWIDTH 3 0
BBX 2 3 1 7
BITMAP
40
40
80
ENDCHAR

STARTCHAR parenleft
ENCODING 40
SWIDTH 288 0
DWIDTH 4 0
BBX 3 11 1 -1
BITMAP
20
40
40
80
80
80
80
80
40
40
20
ENDCHAR

STARTCHAR parenright
ENCODING 41
SWIDTH 288 0
DWIDTH 4 0
BBX 3 11 0 -1
BITMAP
80
40
40
20
20
20
20
20
40
40
80
ENDCHAR

STARTCHAR asterisk
ENCODING 42
SWIDTH 432 0
DWIDTH 6 0
BBX 5 5 1 4
BITMAP
20
A8
50
A8
20
ENDCHAR

STARTCHAR plus
ENCODING 43
SWIDTH 576 0
DWIDTH 8 0
BBX 7 7 1 1
BITMAP
10
10
10
FE
10
10
10
ENDCHAR

STARTCHAR comma
ENCODING 44
SWIDTH 216 0
DWIDTH 3 0
BBX 2 3 0 -1
BITMAP
40
40
80
ENDCHAR

STARTCHAR minus
ENCODING 45
SWIDTH 576 0
DWIDTH 8 0
BBX 7 1 1 4
BITMAP
FE
ENDCHAR

STARTCHAR period
ENCODING 46
SWIDTH 216 0
DWIDTH 3 0
BBX 1 2 1 0
BITMAP
80
80
ENDCHAR

STARTCHAR slash
ENCODING 47
SWIDTH 432 0
DWIDTH 6 0
BBX 5 11 1 -1
BITMAP
08
08
10
10
20
20
20
40
40
80
80
ENDCHAR

STARTCHAR zero
ENCODING 48
SWIDTH 576 0
DWIDTH 8 0
BBX 6 9 1 0
BITMAP
30
48
84
84
84
84
84
48
30
ENDCHAR

STARTCHAR one
ENCODING 49
SWIDTH 576 0
DWIDTH 8 0
BBX 3 9 2 0
BITMAP
20
E0
20
20
20
20
20
20
20
ENDCHAR

STARTCHAR two
ENCODING 50
SWIDTH 576 0
DWIDTH 8 0
BBX 6 9 1 0
BITMAP
78
84
04
04
08
10
20
40
FC
ENDCHAR

STARTCHAR three
ENCODING 51
SWIDTH 576 0
DWIDTH 8 0
BBX 6 9 1 0
BITMAP
78
84
04
04
38
04
04
84
78
ENDCHAR

STARTCHAR four
ENCODING 52
SWIDTH 576 0
DWIDTH 8 0
BBX 7 9 0 0
BITMAP
0C
14
24
44
84
FE
04
04
04
ENDCHAR

STARTCHAR five
ENCODING 53
SWIDTH 576 0
DWIDTH 8 0
BBX 6 9 1 0
BITMAP
FC
80
80
F8
04
04
04
84
78
ENDCHAR

STARTCHAR six
ENCODING 54
SWIDTH 576 0
DWIDTH 8 0
BBX 6 9 1 0
BITMAP
78
84
80
80
F8
84
84
84
78
ENDCHAR

STARTCHAR seven
ENCODING 55
SWIDTH 576 0
DWIDTH 8 0
BBX 6 9 1 0
BITMAP
FC
04
08
10
10
20
20
40
40
ENDCHAR

STARTCHAR eight
ENCODING 56
SWIDTH 576 0
DWIDTH 8 0
BBX 6 9 1 0
BITMAP
78
84
84
84
78
84
84
84
78
ENDCHAR

STARTCHAR nine
ENCODING 57
SWIDTH 576 0
DWIDTH 8 0
BBX 6 9 1 0
BITMAP
78
84
84
84
7C
04
04
84
78
ENDCHAR

STARTCHAR colon
ENCODING 58
SWIDTH 216 0
DWIDTH 3 0
BBX 1 7 1 0
BITMAP
80
80
00
00
00
80
80
ENDCHAR

STARTCHAR semicolon
ENCODING 59
SWIDTH 216 0
DWIDTH 3 0
BBX 2 8 0 -1
BITMAP
40
40
00
00
00
40
40
80
ENDCHAR

STARTCHAR less
ENCODING 60
SWIDTH 576 0
DWIDTH 8 0
BBX 6 7 1 1
BITMAP
0C
30
40
80
40
30
0C
ENDCHAR

STARTCHAR equal
ENCODING 61
SWIDTH 576 0
DWIDTH 8 0
BBX 7 3 1 3
BITMAP
FE
00
FE
ENDCHAR

STARTCHAR greater
ENCODING 62
SWIDTH 576 0
DWIDTH 8 0
BBX 6 7 1 1
BITMAP
C0
30
08
04
08
30
C0
ENDCHAR

STARTCHAR question
ENCODING 63
SWIDTH 432 0
DWIDTH 6 0
BBX 5 9 1 0
BITMAP
F0
08
08
08
70
40
00
40
40
ENDCHAR

STARTCHAR at
ENCODING 64
SWIDTH 792 0
DWIDTH 11 0
BBX 9 9 1 0
BITMAP
3E00
4100
8F00
9100
9100
9300
8C80
4000
3F00
ENDCHAR

STARTCHAR A
ENCODING 65
SWIDTH 576 0
DWIDTH 8 0
BBX 6 9 1 0
BITMAP
30
30
48
48
48
FC
84
84
84
ENDCHAR

STARTCHAR B
ENCODING 66
SWIDTH 504 0
DWIDTH 7 0
BBX 5 9 1 0
BITMAP
F0
88
88
88
F0
88
88
88
F0
ENDCHAR

STARTCHAR C
ENCODING 67
SWIDTH 648 0
DWIDTH 9 0
BBX 7 9 1 0
BITMAP
3C
42
80
80
80
80
80
42
3C
ENDCHAR

STARTCHAR D
ENCODING 68
SWIDTH 648 0
DWIDTH 9 0
BBX 7 9 1 0
BITMAP
F8
84
82
82
82
82
82
84
F8
ENDCHAR

STARTCHAR E
ENCODING 69
SWIDTH 504 0
DWIDTH 7 0
BBX 5 9 1 0
BITMAP
F8
80
80
80
F0
80
80
80
F8
ENDCHAR

STARTCHAR F
ENCODING 70
SWIDTH 504 0
DWIDTH 7 0
BBX 4 9 2 0
BITMAP
F0
80
80
80
F0
80
80
80
80
ENDCHAR

STARTCHAR G
ENCODING 71
SWIDTH 648 0
DWIDTH 9 0
BBX 7 9 1 0
BITMAP
3C
42
80
80
80
82
82
42
3E
ENDCHAR

STARTCHAR H
ENCODING 72
SWIDTH 648 0
DWIDTH 9 0
BBX 6 9 2 0
BITMAP
84
84
84
84
FC
84
84
84
84
ENDCHAR

STARTCHAR I
ENCODING 73
SWIDTH 288 0
DWIDTH 4 0
BBX 1 9 2 0
BITMAP
80
80
80
80
80
80
80
80
80
ENDCHAR

STARTCHAR J
ENCODING 74
SWIDTH 288 0
DWIDTH 4 0
BBX 3 10 0 -1
BITMAP
20
20
20
20
20
20
20
20
20
C0
ENDCHAR

STARTCHAR K
ENCODING 75
SWIDTH 576 0
DWIDTH 8 0
BBX 6 9 2 0
BITMAP
84
88
90
A0
E0
90
88
84
84
ENDCHAR

STARTCHAR L
ENCODING 76
SWIDTH 432 0
DWIDTH 6 0
BBX 4 9 2 0
BITMAP
80
80
80
80
80
80
80
80
F0
ENDCHAR

STARTCHAR M
ENCODING 77
SWIDTH 792 0
DWIDTH 11 0
BBX 7 9 3 0
BITMAP
82
C6
C6
AA
AA
92
92
82
82
ENDCHAR

STARTCHAR N
ENCODING 78
SWIDTH 648 0
DWIDTH 9 0
BBX 6 9 2 0
BITMAP
84
C4
C4
A4
B4
94
8C
8C
84
ENDCHAR

STARTCHAR O
ENCODING 79
SWIDTH 720 0
DWIDTH 10 0
BBX 8 9 1 0
BITMAP
3C
42
81
81
81
81
81
42
3C
ENDCHAR

STARTCHAR P
ENCODING 80
SWIDTH 576 0
DWIDTH 8 0
BBX 5 9 2 0
BITMAP
F0
88
88
88
88
F0
80
80
80
ENDCHAR

STARTCHAR Q
ENCODING 81
SWIDTH 720 0
DWIDTH 10 0
BBX 9 11 1 -2
BITMAP
3C00
4200
8100
8100
8100
8100
8100
4200
3C00
0300
0180
ENDCHAR

STARTCHAR R
ENCODING 82
SWIDTH 576 0
DWIDTH 8 0
BBX 5 9 2 0
BITMAP
F0
88
88
88
F0
90
88
88
88
ENDCHAR

STARTCHAR S
ENCODING 83
SWIDTH 504 0
DWIDTH 7 0
BBX 5 9 1 0
BITMAP
78
80
80
C0
70
18
08
08
F0
ENDCHAR

STARTCHAR T
ENCODING 84
SWIDTH 576 0
DWIDTH 8 0
BBX 7 9 1 0
BITMAP
FE
10
10
10
10
10
10
10
10
ENDCHAR

STARTCHAR U
ENCODING 85
SWIDTH 648 0
DWIDTH 9 0
BBX 6 9 2 0
BITMAP
84
84
84
84
84
84
84
84
78
ENDCHAR

STARTCHAR V
ENCODING 86
SWIDTH 576 0
DWIDTH 8 0
BBX 6 9 1 0
BITMAP
84
84
84
84
48
48
48
30
30
ENDCHAR

STARTCHAR W
ENCODING 87
SWIDTH 792 0
DWIDTH 11 0
BBX 9 9 1 0
BITMAP
8080
8080
8880
8880
5500
5500
5500
2200
2200
ENDCHAR

STARTCHAR X
ENCODING 88
SWIDTH 576 0
DWIDTH 8 0
BBX 6 9 1 0
BITMAP
84
84
48
28
30
50
48
84
84
ENDCHAR

STARTCHAR Y
ENCODING 89
SWIDTH 576 0
DWIDTH 8 0
BBX 7 9 1 0
BITMAP
82
82
44
44
28
10
10
10
10
ENDCHAR

STARTCHAR Z
ENCODING 90
SWIDTH 576 0
DWIDTH 8 0
BBX 6 9 1 0
BITMAP
FC
04
08
10
30
20
40
80
FC
ENDCHAR

STARTCHAR bracketleft
ENCODING 91
SWIDTH 288 0
DWIDTH 4 0
BBX 3 11 1 -1
BITMAP
E0
80
80
80
80
80
80
80
80
80
E0
ENDCHAR

STARTCHAR backslash
ENCODING 92
SWIDTH 432 0
DWIDTH 6 0
BBX 5 11 1 -1
BITMAP
80
80
40
40
40
20
20
10
10
08
08
ENDCHAR

STARTCHAR bracketright
ENCODING 93
SWIDTH 288 0
DWIDTH 4 0
BBX 3 11 0 -1
BITMAP
E0
20
20
20
20
20
20
20
20
20
E0
ENDCHAR

STARTCHAR asciicircum
ENCODING 94
SWIDTH 576 0
DWIDTH 8 0
BBX 5 6 2 3
BITMAP
20
20
50
50
88
88
ENDCHAR

STARTCHAR underscore
ENCODING 95
SWIDTH 576 0
DWIDTH 8 0
BBX 6 1 1 -1
BITMAP
FC
ENDCHAR

STARTCHAR quoteleft
ENCODING 96
SWIDTH 216 0
DWIDTH 3 0
BBX 2 3 1 7
BITMAP
40
80
80
ENDCHAR

STARTCHAR a
ENCODING 97
SWIDTH 504 0
DWIDTH 7 0
BBX 6 7 1 0
BITMAP
70
88
08
78
88
88
74
ENDCHAR

STARTCHAR b
ENCODING 98
SWIDTH 576 0
DWIDTH 8 0
BBX 5 10 2 0
BITMAP
80
80
80
B0
C8
88
88
88
88
F0
ENDCHAR

STARTCHAR c
ENCODING 99
SWIDTH 432 0
DWIDTH 6 0
BBX 5 7 1 0
BITMAP
38
40
80
80
80
40
38
ENDCHAR

STARTCHAR d
ENCODING 100
SWIDTH 576 0
DWIDTH 8 0
BBX 5 10 2 0
BITMAP
08
08
08
78
88
88
88
88
98
68
ENDCHAR

STARTCHAR e
ENCODING 101
SWIDTH 504 0
DWIDTH 7 0
BBX 5 7 1 0
BITMAP
70
88
88
F8
80
88
70
ENDCHAR

STARTCHAR f
ENCODING 102
SWIDTH 360 0
DWIDTH 5 0
BBX 4 10 1 0
BITMAP
30
40
40
F0
40
40
40
40
40
40
ENDCHAR

STARTCHAR g
ENCODING 103
SWIDTH 504 0
DWIDTH 7 0
BBX 5 9 1 -2
BITMAP
78
88
88
88
98
68
08
08
70
ENDCHAR

STARTCHAR h
ENCODING 104
SWIDTH 576 0
DWIDTH 8 0
BBX 5 10 2 0
BITMAP
80
80
80
B0
C8
88
88
88
88
88
ENDCHAR

STARTCHAR i
ENCODING 105
SWIDTH 288 0
DWIDTH 4 0
BBX 1 10 2 0
BITMAP
80
80
00
80
80
80
80
80
80
80
ENDCHAR

STARTCHAR j
ENCODING 106
SWIDTH 288 0
DWIDTH 4 0
BBX 3 12 0 -2
BITMAP
20
20
00
20
20
20
20
20
20
20
20
C0
ENDCHAR

STARTCHAR k
ENCODING 107
SWIDTH 504 0
DWIDTH 7 0
BBX 5 10 2 0
BITMAP
80
80
80
88
90
A0
E0
90
98
88
ENDCHAR

STARTCHAR l
ENCODING 108
SWIDTH 288 0
DWIDTH 4 0
BBX 1 10 2 0
BITMAP
80
80
80
80
80
80
80
80
80
80
ENDCHAR

STARTCHAR m
ENCODING 109
SWIDTH 864 0
DWIDTH 12 0
BBX 9 7 2 0
BITMAP
B300
CC80
8880
8880
8880
8880
8880
ENDCHAR

STARTCHAR n
ENCODING 110
SWIDTH 576 0
DWIDTH 8 0
BBX 5 7 2 0
BITMAP
B0
C8
88
88
88
88
88
ENDCHAR

STARTCHAR o
ENCODING 111
SWIDTH 504 0
DWIDTH 7 0
BBX 6 7 1 0
BITMAP
30
48
84
84
84
48
30
ENDCHAR

STARTCHAR p
ENCODING 112
SWIDTH 576 0
DWIDTH 8 0
BBX 5 9 2 -2
BITMAP
B0
C8
88
88
88
88
F0
80
80
ENDCHAR

STARTCHAR q
ENCODING 113
SWIDTH 504 0
DWIDTH 7 0
BBX 5 9 1 -2
BITMAP
78
88
88
88
88
98
68
08
08
ENDCHAR

STARTCHAR r
ENCODING 114
SWIDTH 360 0
DWIDTH 5 0
BBX 4 7 1 0
BITMAP
B0
C0
80
80
80
80
80
ENDCHAR

STARTCHAR s
ENCODING 115
SWIDTH 432 0
DWIDTH 6 0
BBX 4 7 1 0
BITMAP
70
80
80
60
10
10
E0
ENDCHAR

STARTCHAR t
ENCODING 116
SWIDTH 360 0
DWIDTH 5 0
BBX 4 9 1 0
BITMAP
40
40
F0
40
40
40
40
40
30
ENDCHAR

STARTCHAR u
ENCODING 117
SWIDTH 576 0
DWIDTH 8 0
BBX 5 7 2 0
BITMAP
88
88
88
88
88
98
68
ENDCHAR

STARTCHAR v
ENCODING 118
SWIDTH 504 0
DWIDTH 7 0
BBX 5 7 1 0
BITMAP
88
88
88
50
50
20
20
ENDCHAR

STARTCHAR w
ENCODING 119
SWIDTH 792 0
DWIDTH 11 0
BBX 9 7 1 0
BITMAP
8080
8880
4900
5500
5500
2200
2200
ENDCHAR

STARTCHAR x
ENCODING 120
SWIDTH 504 0
DWIDTH 7 0
BBX 5 7 1 0
BITMAP
88
88
50
20
50
88
88
ENDCHAR

STARTCHAR y
ENCODING 121
SWIDTH 504 0
DWIDTH 7 0
BBX 5 9 1 -2
BITMAP
88
88
88
50
50
20
20
40
C0
ENDCHAR

STARTCHAR z
ENCODING 122
SWIDTH 504 0
DWIDTH 7 0
BBX 5 7 1 0
BITMAP
F8
08
10
20
40
80
F8
ENDCHAR

STARTCHAR braceleft
ENCODING 123
SWIDTH 288 0
DWIDTH 4 0
BBX 4 11 0 -1
BITMAP
30
40
40
40
20
C0
20
40
40
40
30
ENDCHAR

STARTCHAR bar
ENCODING 124
SWIDTH 216 0
DWIDTH 3 0
BBX 1 11 1 -1
BITMAP
80
80
80
80
80
80
80
80
80
80
80
ENDCHAR

STARTCHAR braceright
ENCODING 125
SWIDTH 288 0
DWIDTH 4 0
BBX 4 11 0 -1
BITMAP
C0
20
20
20
40
30
40
20
20
20
C0
ENDCHAR

STARTCHAR asciitilde
ENCODING 126
SWIDTH 576 0
DWIDTH 8 0
BBX 7 2 1 4
BITMAP
72
9C
ENDCHAR

STARTCHAR cent
ENCODING 162
SWIDTH 576 0
DWIDTH 8 0
BBX 6 11 1 -1
BITMAP
10
10
38
54
90
90
90
50
3C
10
10
ENDCHAR

STARTCHAR sterling
ENCODING 163
SWIDTH 576 0
DWIDTH 8 0
BBX 6 9 1 0
BITMAP
38
44
40
40
F0
40
40
40
FC
ENDCHAR

STARTCHAR currency
ENCODING 164
SWIDTH 576 0
DWIDTH 8 0
BBX 8 9 0 0
BITMAP
81
42
3C
66
42
66
3C
42
81
ENDCHAR

STARTCHAR yen
ENCODING 165
SWIDTH 576 0
DWIDTH 8 0
BBX 5 9 2 0
BITMAP
88
88
88
50
F8
20
F8
20
20
ENDCHAR

STARTCHAR brokenbar
ENCODING 166
SWIDTH 216 0
DWIDTH 3 0
BBX 1 11 1 -1
BITMAP
80
80
80
80
00
00
00
80
80
80
80
ENDCHAR

STARTCHAR section
ENCODING 167
SWIDTH 576 0
DWIDTH 8 0
BBX 6 10 1 -1
BITMAP
38
44
60
90
88
44
24
18
88
70
ENDCHAR

STARTCHAR dieresis
ENCODING 168
SWIDTH 504 0
DWIDTH 7 0
BBX 4 2 2 8
BITMAP
90
90
ENDCHAR

STARTCHAR copyright
ENCODING 169
SWIDTH 792 0
DWIDTH 11 0
BBX 9 9 1 0
BITMAP
3E00
4100
9C80
A080
A080
A080
9C80
4100
3E00
ENDCHAR

STARTCHAR multiply
ENCODING 170
SWIDTH 576 0
DWIDTH 8 0
BBX 5 5 2 2
BITMAP
88
50
20
50
88
ENDCHAR

STARTCHAR guillemotleft
ENCODING 171
SWIDTH 504 0
DWIDTH 7 0
BBX 6 5 0 1
BITMAP
24
48
90
48
24
ENDCHAR

STARTCHAR logicalnot
ENCODING 172
SWIDTH 576 0
DWIDTH 8 0
BBX 6 3 1 2
BITMAP
FC
04
04
ENDCHAR

STARTCHAR hyphen
ENCODING 173
SWIDTH 288 0
DWIDTH 4 0
BBX 3 1 1 4
BITMAP
E0
ENDCHAR

STARTCHAR registered
ENCODING 174
SWIDTH 576 0
DWIDTH 8 0
BBX 8 8 1 1
BITMAP
3C
42
B9
B9
A9
A5
42
3C
ENDCHAR

STARTCHAR macron
ENCODING 175
SWIDTH 504 0
DWIDTH 7 0
BBX 4 1 2 8
BITMAP
F0
ENDCHAR

STARTCHAR degree
ENCODING 176
SWIDTH 288 0
DWIDTH 4 0
BBX 4 3 0 6
BITMAP
60
90
60
ENDCHAR

STARTCHAR plusminus
ENCODING 177
SWIDTH 576 0
DWIDTH 8 0
BBX 7 7 1 1
BITMAP
10
10
FE
10
10
00
FE
ENDCHAR

STARTCHAR twosuperior
ENCODING 178
SWIDTH 360 0
DWIDTH 5 0
BBX 4 5 1 4
BITMAP
E0
10
60
80
F0
ENDCHAR

STARTCHAR threesuperior
ENCODING 179
SWIDTH 360 0
DWIDTH 5 0
BBX 4 5 1 4
BITMAP
E0
10
60
10
E0
ENDCHAR

STARTCHAR acute
ENCODING 180
SWIDTH 504 0
DWIDTH 7 0
BBX 3 2 3 8
BITMAP
60
80
ENDCHAR

STARTCHAR mu
ENCODING 181
SWIDTH 576 0
DWIDTH 8 0
BBX 5 9 2 -2
BITMAP
88
88
88
88
88
D8
A8
80
80
ENDCHAR

STARTCHAR paragraph
ENCODING 182
SWIDTH 576 0
DWIDTH 8 0
BBX 5 10 1 -1
BITMAP
78
E8
E8
E8
68
28
28
28
28
28
ENDCHAR

STARTCHAR periodcentered
ENCODING 183
SWIDTH 576 0
DWIDTH 8 0
BBX 2 2 3 3
BITMAP
C0
C0
ENDCHAR

STARTCHAR cedilla
ENCODING 184
SWIDTH 504 0
DWIDTH 7 0
BBX 3 2 2 -2
BITMAP
20
C0
ENDCHAR

STARTCHAR onesuperior
ENCODING 185
SWIDTH 360 0
DWIDTH 5 0
BBX 2 5 1 4
BITMAP
40
C0
40
40
40
ENDCHAR

STARTCHAR divide
ENCODING 186
SWIDTH 576 0
DWIDTH 8 0
BBX 7 7 1 1
BITMAP
10
10
00
FE
00
10
10
ENDCHAR

STARTCHAR guillemotright
ENCODING 187
SWIDTH 504 0
DWIDTH 7 0
BBX 6 5 1 1
BITMAP
90
48
24
48
90
ENDCHAR

STARTCHAR onequarter
ENCODING 188
SWIDTH 720 0
DWIDTH 10 0
BBX 10 9 0 0
BITMAP
C400
4400
4800
4800
5180
1280
1480
27C0
2080
ENDCHAR

STARTCHAR onehalf
ENCODING 189
SWIDTH 720 0
DWIDTH 10 0
BBX 10 9 0 0
BITMAP
C400
4400
4800
4800
4980
1240
10C0
2100
23C0
ENDCHAR

STARTCHAR threequarters
ENCODING 190
SWIDTH 792 0
DWIDTH 11 0
BBX 10 9 1 0
BITMAP
E200
1200
6400
1400
E980
0A80
1480
27C0
2080
ENDCHAR

STARTCHAR dblunderscore
ENCODING 223
SWIDTH 648 0
DWIDTH 9 0
BBX 9 6 0 -2
BITMAP
0000
7F00
0000
0000
7F00
0000
ENDCHAR

STARTCHAR aleph
ENCODING 224
SWIDTH 648 0
DWIDTH 9 0
BBX 8 9 0 0
BITMAP
00
21
21
11
1A
24
22
21
21
ENDCHAR

STARTCHAR beth
ENCODING 225
SWIDTH 576 0
DWIDTH 8 0
BBX 7 9 0 0
BITMAP
00
78
04
04
04
04
04
04
7E
ENDCHAR

STARTCHAR gimmel
ENCODING 226
SWIDTH 576 0
DWIDTH 8 0
BBX 6 9 1 0
BITMAP
00
38
08
08
08
08
18
24
C4
ENDCHAR

STARTCHAR daleth
ENCODING 227
SWIDTH 648 0
DWIDTH 9 0
BBX 7 9 1 0
BITMAP
00
FE
08
08
08
08
08
08
08
ENDCHAR

STARTCHAR he
ENCODING 228
SWIDTH 576 0
DWIDTH 8 0
BBX 7 9 0 0
BITMAP
00
7C
02
02
42
42
42
42
42
ENDCHAR

STARTCHAR waw
ENCODING 229
SWIDTH 216 0
DWIDTH 3 0
BBX 3 9 0 0
BITMAP
00
40
40
40
40
40
40
40
40
ENDCHAR

STARTCHAR zayin
ENCODING 230
SWIDTH 504 0
DWIDTH 7 0
BBX 5 9 1 0
BITMAP
00
F8
20
10
10
20
20
40
40
ENDCHAR

STARTCHAR het
ENCODING 231
SWIDTH 576 0
DWIDTH 8 0
BBX 8 9 0 0
BITMAP
00
7C
42
42
42
42
42
42
42
ENDCHAR

STARTCHAR teth
ENCODING 232
SWIDTH 648 0
DWIDTH 9 0
BBX 8 9 0 0
BITMAP
00
46
49
41
41
41
41
22
1C
ENDCHAR

STARTCHAR yod
ENCODING 233
SWIDTH 216 0
DWIDTH 3 0
BBX 3 7 0 2
BITMAP
00
40
40
40
40
40
00
ENDCHAR

STARTCHAR kaphfinal
ENCODING 234
SWIDTH 576 0
DWIDTH 8 0
BBX 7 11 0 -2
BITMAP
00
7C
02
02
02
02
02
02
02
02
02
ENDCHAR

STARTCHAR kaph
ENCODING 235
SWIDTH 648 0
DWIDTH 9 0
BBX 8 9 0 0
BITMAP
00
7C
02
01
01
01
01
02
7C
ENDCHAR

STARTCHAR lamed
ENCODING 236
SWIDTH 648 0
DWIDTH 9 0
BBX 8 12 0 -1
BITMAP
40
40
40
7F
01
02
02
04
04
08
08
00
ENDCHAR

STARTCHAR memfinal
ENCODING 237
SWIDTH 576 0
DWIDTH 8 0
BBX 8 9 0 0
BITMAP
00
F8
84
82
82
82
82
82
FE
ENDCHAR

STARTCHAR mem
ENCODING 238
SWIDTH 720 0
DWIDTH 10 0
BBX 9 9 1 -1
BITMAP
8C00
9200
A100
4100
4100
8100
8100
9F00
0000
ENDCHAR

STARTCHAR nunfinal
ENCODING 239
SWIDTH 216 0
DWIDTH 3 0
BBX 3 11 0 -2
BITMAP
00
40
40
40
40
40
40
40
40
40
40
ENDCHAR

STARTCHAR nun
ENCODING 240
SWIDTH 504 0
DWIDTH 7 0
BBX 5 9 1 0
BITMAP
00
70
08
08
08
08
08
08
F8
ENDCHAR

STARTCHAR samekh
ENCODING 241
SWIDTH 648 0
DWIDTH 9 0
BBX 8 9 1 0
BITMAP
00
FE
82
82
82
82
82
44
38
ENDCHAR

STARTCHAR ayin
ENCODING 242
SWIDTH 576 0
DWIDTH 8 0
BBX 8 10 0 -1
BITMAP
00
22
22
22
12
12
12
14
78
00
ENDCHAR

STARTCHAR pefinal
ENCODING 243
SWIDTH 576 0
DWIDTH 8 0
BBX 8 11 0 -2
BITMAP
00
7E
42
42
42
32
02
02
02
02
02
ENDCHAR

STARTCHAR pe
ENCODING 244
SWIDTH 576 0
DWIDTH 8 0
BBX 8 9 0 0
BITMAP
00
7C
42
42
42
32
02
02
7C
ENDCHAR

STARTCHAR zadikfinal
ENCODING 245
SWIDTH 576 0
DWIDTH 8 0
BBX 7 10 0 -2
BITMAP
42
42
22
22
14
18
10
10
10
10
ENDCHAR

STARTCHAR zadik
ENCODING 246
SWIDTH 576 0
DWIDTH 8 0
BBX 8 9 0 0
BITMAP
00
42
42
22
14
08
04
02
7E
ENDCHAR

STARTCHAR kof
ENCODING 247
SWIDTH 720 0
DWIDTH 10 0
BBX 9 11 0 -2
BITMAP
0000
7F80
0080
2100
2100
2200
2200
2400
2400
2000
2000
ENDCHAR

STARTCHAR resh
ENCODING 248
SWIDTH 576 0
DWIDTH 8 0
BBX 7 9 0 0
BITMAP
00
7C
02
02
02
02
02
02
02
ENDCHAR

STARTCHAR shin
ENCODING 249
SWIDTH 792 0
DWIDTH 11 0
BBX 11 9 0 0
BITMAP
0000
4440
4440
4440
4840
7040
4040
2080
1F00
ENDCHAR

STARTCHAR taf
ENCODING 250
SWIDTH 648 0
DWIDTH 9 0
BBX 9 9 0 0
BITMAP
0000
7E00
2100
2100
2100
2100
2100
2100
C100
ENDCHAR
ENDFONT
